<svg xmlns="http://www.w3.org/2000/svg" width="63" height="63" fill="none"><style>.A{fill:#EDEDF4;stroke:#7A4C9E}.B{fill:#7A4C9E}@media(prefers-color-scheme: dark){.A{fill:#2D2B55;stroke:#A599E8}.B{fill:#A599E8}}</style><rect class="A" x="1.75" y="1.75" width="59.5" height="59.5" rx="6.25" stroke-width="2.5"/><path class="B" d="M15 39.5a1.5 1.5 0 1 0 0 3v-3zm34.061 2.561a1.5 1.5 0 0 0 0-2.121l-9.546-9.546a1.5 1.5 0 0 0-2.121 2.121L45.879 41l-8.485 8.485a1.5 1.5 0 0 0 2.121 2.121l9.546-9.546zM15 42.5h33v-3H15v3zm33-19a1.5 1.5 0 1 0 0-3v3zm-34.061-2.561a1.5 1.5 0 0 0 0 2.121l9.546 9.546a1.5 1.5 0 0 0 2.121-2.121L17.121 22l8.485-8.485a1.5 1.5 0 0 0-2.121-2.121l-9.546 9.546zM48 20.5H15v3h33v-3z"/></svg>