<svg viewBox="0 0 44 17" fill="none" xmlns="http://www.w3.org/2000/svg">
<path d="M0 0H44V14.5714H22V17H12.2222V14.5714H0V0ZM2.44444 12.1429H7.33333V4.85714H9.77778V12.1429H12.2222V2.42857H2.44444V12.1429ZM14.6667 2.42857V14.5714H19.5556V12.1429H24.4444V2.42857H14.6667ZM19.5556 4.85714H22V9.71429H19.5556V4.85714ZM26.8889 2.42857V12.1429H31.7778V4.85714H34.2222V12.1429H36.6667V4.85714H39.1111V12.1429H41.5556V2.42857H26.8889Z" fill="#CB3837"/>
<path d="M2.44434 12.1429H7.33322V4.85716H9.77767V12.1429H12.2221V2.42859H2.44434V12.1429Z" fill="white"/>
<path d="M14.6665 2.42859V14.5714H19.5554V12.1429H24.4443V2.42859H14.6665ZM21.9998 9.7143H19.5554V4.85716H21.9998V9.7143Z" fill="white"/>
<path d="M26.8887 2.42859V12.1429H31.7776V4.85716H34.222V12.1429H36.6664V4.85716H39.1109V12.1429H41.5553V2.42859H26.8887Z" fill="white"/>
</svg>
