<svg xmlns="http://www.w3.org/2000/svg" viewBox="0 0 34 34" fill-rule="evenodd"><path d="M17 24a7 7 0 1 0 0-14 7 7 0 1 0 0 14zm0 2a9 9 0 1 0 0-18 9 9 0 1 0 0 18zm12-9a1 1 0 0 1 1-1h3a1 1 0 1 1 0 2h-3a1 1 0 0 1-1-1zM0 17a1 1 0 0 1 1-1h3a1 1 0 1 1 0 2H1a1 1 0 0 1-1-1zm27.392 6a1 1 0 0 1 1.366-.366l2.598 1.5a1 1 0 1 1-1 1.732l-2.598-1.5A1 1 0 0 1 27.392 23zM2.278 8.5a1 1 0 0 1 1.366-.366l2.598 1.5a1 1 0 1 1-1 1.732l-2.598-1.5A1 1 0 0 1 2.278 8.5zM23 27.392a1 1 0 0 1 1.366.366l1.5 2.598a1 1 0 1 1-1.732 1l-1.5-2.598A1 1 0 0 1 23 27.392zM8.5 2.278a1 1 0 0 1 1.366.366l1.5 2.598a1 1 0 1 1-1.732 1l-1.5-2.598A1 1 0 0 1 8.5 2.278z"/><path d="M27.392 11a1 1 0 0 1 .366-1.366l2.598-1.5a1 1 0 1 1 1 1.732l-2.598 1.5A1 1 0 0 1 27.392 11zM2.278 25.5a1 1 0 0 1 .366-1.366l2.598-1.5a1 1 0 1 1 1 1.732l-2.598 1.5a1 1 0 0 1-1.366-.366zM23 6.608a1 1 0 0 1-.366-1.366l1.5-2.598a1 1 0 1 1 1.732 1l-1.5 2.598A1 1 0 0 1 23 6.608zM8.5 31.723a1 1 0 0 1-.366-1.366l1.5-2.598a1 1 0 0 1 1.732 1l-1.5 2.598a1 1 0 0 1-1.366.366zM17 5a1 1 0 0 1-1-1V1a1 1 0 1 1 2 0v3a1 1 0 0 1-1 1zm0 29a1 1 0 0 1-1-1v-3a1 1 0 1 1 2 0v3a1 1 0 0 1-1 1z"/></svg>