<svg xmlns="http://www.w3.org/2000/svg" viewBox="0 0 27 34"><path fill-rule="evenodd" d="M16.119 2.003C8.628 2.164 2.171 8.678 2.004 16.66 1.824 25.172 8.406 32 16.392 32a13.89 13.89 0 0 0 8.072-2.584c-6.992-2.107-11.887-8.815-11.887-16.608 0-4.06 1.264-7.823 3.542-10.805zm10.015 28.665C23.411 32.762 20.043 34 16.392 34 7.217 34-.197 26.182.004 16.618.196 7.436 7.765-.125 16.619.002c.071 0 .145.002.216.005 1.4.036 2.037 1.768 1.136 2.878-2.162 2.664-3.393 6.125-3.393 9.923 0 7.14 4.59 13.156 10.939 14.827 1.349.355 1.735 2.174.618 3.033z"/></svg>